<?xml version="1.0" encoding="UTF-8" standalone="no"?>
<svg width="20px" height="20px" viewBox="0 0 20 20" version="1.1" xmlns="http://www.w3.org/2000/svg" xmlns:xlink="http://www.w3.org/1999/xlink" xmlns:sketch="http://www.bohemiancoding.com/sketch/ns">
    <!-- Generator: Sketch 3.3.2 (12043) - http://www.bohemiancoding.com/sketch -->
    <title>cart_white</title>
    <desc>Created with Sketch.</desc>
    <defs></defs>
    <g id="Page-1" stroke="none" stroke-width="1" fill="none" fill-rule="evenodd" sketch:type="MSPage">
        <g id="Artboard-14" sketch:type="MSArtboardGroup" transform="translate(-350.000000, -106.000000)" fill="#FFFFFF">
            <path d="M369.7,110 L353,110 L354,109 L354,119 L353,118 L367,118 L366.042174,118.712652 L368.955969,109 L369.255969,109 L369.786204,109.712652 L369.7,110 L369.7,110 Z M353,109 L370,109 L367,119 L353,119 L353,109 Z M355,123 C355.552285,123 356,122.552285 356,122 C356,121.447715 355.552285,121 355,121 C354.447715,121 354,121.447715 354,122 C354,122.552285 354.447715,123 355,123 Z M355,124 C353.895431,124 353,123.104569 353,122 C353,120.895431 353.895431,120 355,120 C356.104569,120 357,120.895431 357,122 C357,123.104569 356.104569,124 355,124 Z M364,123 C364.552285,123 365,122.552285 365,122 C365,121.447715 364.552285,121 364,121 C363.447715,121 363,121.447715 363,122 C363,122.552285 363.447715,123 364,123 Z M364,124 C362.895431,124 362,123.104569 362,122 C362,120.895431 362.895431,120 364,120 C365.104569,120 366,120.895431 366,122 C366,123.104569 365.104569,124 364,124 Z M350,109 L353,109 L353,110 L350,110 L350,109 Z" id="Shape" sketch:type="MSShapeGroup"></path>
        </g>
    </g>
</svg>