<?xml version="1.0" encoding="UTF-8" standalone="no"?>
<svg width="20px" height="20px" viewBox="0 0 20 20" version="1.1" xmlns="http://www.w3.org/2000/svg" xmlns:xlink="http://www.w3.org/1999/xlink" xmlns:sketch="http://www.bohemiancoding.com/sketch/ns">
    <!-- Generator: Sketch 3.3.2 (12043) - http://www.bohemiancoding.com/sketch -->
    <title>filter_dark</title>
    <desc>Created with Sketch.</desc>
    <defs></defs>
    <g id="Page-1" stroke="none" stroke-width="1" fill="none" fill-rule="evenodd" sketch:type="MSPage">
        <g id="Artboard-14" sketch:type="MSArtboardGroup" transform="translate(-290.000000, -106.000000)" fill="#555555">
            <path d="M290,110 L293,110 L293,111 L290,111 L290,110 Z M298,110 L310,110 L310,111 L298,111 L298,110 Z M290,120 L293,120 L293,121 L290,121 L290,120 Z M298,120 L310,120 L310,121 L298,121 L298,120 Z M290,115 L302,115 L302,116 L290,116 L290,115 Z M307,115 L310,115 L310,116 L307,116 L307,115 Z M295.5,112 C296.328427,112 297,111.328427 297,110.5 C297,109.671573 296.328427,109 295.5,109 C294.671573,109 294,109.671573 294,110.5 C294,111.328427 294.671573,112 295.5,112 Z M295.5,112.9 C294.119288,112.9 293,111.803098 293,110.45 C293,109.096902 294.119288,108 295.5,108 C296.880712,108 298,109.096902 298,110.45 C298,111.803098 296.880712,112.9 295.5,112.9 Z M295.5,122 C296.328427,122 297,121.328427 297,120.5 C297,119.671573 296.328427,119 295.5,119 C294.671573,119 294,119.671573 294,120.5 C294,121.328427 294.671573,122 295.5,122 Z M295.5,122.9 C294.119288,122.9 293,121.803098 293,120.45 C293,119.096902 294.119288,118 295.5,118 C296.880712,118 298,119.096902 298,120.45 C298,121.803098 296.880712,122.9 295.5,122.9 Z M304.5,117 C305.328427,117 306,116.328427 306,115.5 C306,114.671573 305.328427,114 304.5,114 C303.671573,114 303,114.671573 303,115.5 C303,116.328427 303.671573,117 304.5,117 Z M304.5,117.9 L304.5,117.9 C303.119288,117.9 302,116.803098 302,115.45 C302,114.096902 303.119288,113 304.5,113 C305.880712,113 307,114.096902 307,115.45 C307,116.803098 305.880712,117.9 304.5,117.9 L304.5,117.9 Z" id="Path" sketch:type="MSShapeGroup"></path>
        </g>
    </g>
</svg>