<?xml version="1.0" encoding="UTF-8" standalone="no"?>
<svg width="125px" height="17px" viewBox="0 0 125 17" version="1.1" xmlns="http://www.w3.org/2000/svg" xmlns:xlink="http://www.w3.org/1999/xlink" xmlns:sketch="http://www.bohemiancoding.com/sketch/ns">
    <!-- Generator: Sketch 3.3.2 (12043) - http://www.bohemiancoding.com/sketch -->
    <title>logo_small</title>
    <desc>Created with Sketch.</desc>
    <defs></defs>
    <g id="Page-1" stroke="none" stroke-width="1" fill="none" fill-rule="evenodd" sketch:type="MSPage">
        <g id="Artboard-14" sketch:type="MSArtboardGroup" transform="translate(-59.000000, -55.000000)" fill="#444444">
            <path d="M71.059,56.006 L61.63,56.006 L61.63,58.106 L65.221,58.106 L65.221,71 L67.468,71 L67.468,58.106 L71.059,58.106 L71.059,56.006 Z M77.4430001,68.9 L77.4430001,64.28 L81.9790001,64.28 L81.9790001,62.18 L77.4430001,62.18 L77.4430001,58.106 L83.6170001,58.106 L83.6170001,56.006 L75.1960001,56.006 L75.1960001,71 L83.6170001,71 L83.6170001,68.9 L77.4430001,68.9 Z M92.8570001,64.49 L95.2090001,71 L97.6450001,71 L94.7470001,63.062 L97.3510001,56.006 L94.9990001,56.006 L92.8990001,61.718 L91.7650001,61.718 L89.6650001,56.006 L87.2710001,56.006 L89.8750001,63.062 L86.9770001,71 L89.3710001,71 L91.7230001,64.49 L92.8570001,64.49 Z M108.964,56.006 L108.964,62.201 L104.029,62.201 L104.029,56.006 L101.782,56.006 L101.782,71 L104.029,71 L104.029,64.343 L108.964,64.343 L108.964,71 L111.211,71 L111.211,56.006 L108.964,56.006 Z M121.165,55.733 C117.322,55.733 115.873,58.967 115.873,63.503 C115.873,68.018 117.322,71.273 121.165,71.273 C125.008,71.273 126.457,68.018 126.457,63.503 C126.457,58.967 125.008,55.733 121.165,55.733 L121.165,55.733 Z M121.165,69.11 C118.813,69.11 118.162,66.926 118.162,63.503 C118.162,60.08 118.813,57.896 121.165,57.896 C123.517,57.896 124.168,60.08 124.168,63.503 C124.168,66.926 123.517,69.11 121.165,69.11 L121.165,69.11 Z M131.119,56.006 L131.119,71 L133.366,71 L133.366,58.106 L138.259,58.106 L138.259,71 L140.506,71 L140.506,56.006 L131.119,56.006 Z M152.749,71 L154.996,71 L151.993,56.006 L147.625,56.006 L144.643,71 L146.848,71 L147.667,66.548 L151.909,66.548 L152.749,71 Z M149.221,58.316 L150.376,58.316 L151.51,64.448 L148.066,64.448 L149.221,58.316 Z M163.795,56.006 L159.133,56.006 L159.133,71 L161.38,71 L161.38,64.868 L163.795,64.868 C166.945,64.868 168.73,63.146 168.73,60.416 C168.73,57.686 166.945,56.006 163.795,56.006 L163.795,56.006 Z M163.501,62.768 L161.38,62.768 L161.38,58.106 L163.501,58.106 C165.664,58.106 166.441,58.967 166.441,60.437 C166.441,61.907 165.664,62.768 163.501,62.768 L163.501,62.768 Z M173.077001,71 L175.324001,71 L175.324001,64.343 L177.802001,64.343 L180.259001,71 L182.632001,71 L179.755001,63.293 L182.464001,56.006 L180.091001,56.006 L177.802001,62.201 L175.324001,62.201 L175.324001,56.006 L173.077001,56.006 L173.077001,71 Z" id="Технопарк" sketch:type="MSShapeGroup"></path>
        </g>
    </g>
</svg>