<?xml version="1.0" encoding="UTF-8" standalone="no"?>
<svg width="202px" height="27px" viewBox="0 0 202 27" version="1.1" xmlns="http://www.w3.org/2000/svg" xmlns:xlink="http://www.w3.org/1999/xlink" xmlns:sketch="http://www.bohemiancoding.com/sketch/ns">
    <!-- Generator: Sketch 3.3.2 (12043) - http://www.bohemiancoding.com/sketch -->
    <title>logo_big</title>
    <desc>Created with Sketch.</desc>
    <defs></defs>
    <g id="Page-1" stroke="none" stroke-width="1" fill="none" fill-rule="evenodd" sketch:type="MSPage">
        <g id="Artboard-14" sketch:type="MSArtboardGroup" transform="translate(-59.000000, -19.000000)" fill="#444444">
            <path d="M74.715,20.01 L59,20.01 L59,23.51 L64.985,23.51 L64.985,45 L68.73,45 L68.73,23.51 L74.715,23.51 L74.715,20.01 Z M85.3550004,41.5 L85.3550004,33.8 L92.9150004,33.8 L92.9150004,30.3 L85.3550004,30.3 L85.3550004,23.51 L95.6450004,23.51 L95.6450004,20.01 L81.6100004,20.01 L81.6100004,45 L95.6450004,45 L95.6450004,41.5 L85.3550004,41.5 Z M111.045001,34.15 L114.965001,45 L119.025001,45 L114.195001,31.77 L118.535001,20.01 L114.615001,20.01 L111.115001,29.53 L109.225001,29.53 L105.725001,20.01 L101.735001,20.01 L106.075001,31.77 L101.245001,45 L105.235001,45 L109.155001,34.15 L111.045001,34.15 Z M137.890001,20.01 L137.890001,30.335 L129.665001,30.335 L129.665001,20.01 L125.920001,20.01 L125.920001,45 L129.665001,45 L129.665001,33.905 L137.890001,33.905 L137.890001,45 L141.635001,45 L141.635001,20.01 L137.890001,20.01 Z M158.225002,19.555 C151.820002,19.555 149.405002,24.945 149.405002,32.505 C149.405002,40.03 151.820002,45.455 158.225002,45.455 C164.630002,45.455 167.045002,40.03 167.045002,32.505 C167.045002,24.945 164.630002,19.555 158.225002,19.555 L158.225002,19.555 Z M158.225002,41.85 C154.305002,41.85 153.220002,38.21 153.220002,32.505 C153.220002,26.8 154.305002,23.16 158.225002,23.16 C162.145002,23.16 163.230002,26.8 163.230002,32.505 C163.230002,38.21 162.145002,41.85 158.225002,41.85 L158.225002,41.85 Z M174.815002,20.01 L174.815002,45 L178.560002,45 L178.560002,23.51 L186.715002,23.51 L186.715002,45 L190.460002,45 L190.460002,20.01 L174.815002,20.01 Z M210.865003,45 L214.610003,45 L209.605003,20.01 L202.325003,20.01 L197.355003,45 L201.030003,45 L202.395003,37.58 L209.465003,37.58 L210.865003,45 Z M204.985003,23.86 L206.910003,23.86 L208.800003,34.08 L203.060003,34.08 L204.985003,23.86 Z M229.275003,20.01 L221.505003,20.01 L221.505003,45 L225.250003,45 L225.250003,34.78 L229.275003,34.78 C234.525003,34.78 237.500003,31.91 237.500003,27.36 C237.500003,22.81 234.525003,20.01 229.275003,20.01 L229.275003,20.01 Z M228.785003,31.28 L225.250003,31.28 L225.250003,23.51 L228.785003,23.51 C232.390003,23.51 233.685003,24.945 233.685003,27.395 C233.685003,29.845 232.390003,31.28 228.785003,31.28 L228.785003,31.28 Z M244.745003,45 L248.490003,45 L248.490003,33.905 L252.620003,33.905 L256.715003,45 L260.670003,45 L255.875003,32.155 L260.390003,20.01 L256.435003,20.01 L252.620003,30.335 L248.490003,30.335 L248.490003,20.01 L244.745003,20.01 L244.745003,45 Z" id="Технопарк" sketch:type="MSShapeGroup"></path>
        </g>
    </g>
</svg>