<?xml version="1.0" encoding="UTF-8" standalone="no"?>
<svg width="20px" height="20px" viewBox="0 0 20 20" version="1.1" xmlns="http://www.w3.org/2000/svg" xmlns:xlink="http://www.w3.org/1999/xlink" xmlns:sketch="http://www.bohemiancoding.com/sketch/ns">
    <!-- Generator: Sketch 3.3.2 (12043) - http://www.bohemiancoding.com/sketch -->
    <title>search_white</title>
    <desc>Created with Sketch.</desc>
    <defs></defs>
    <g id="Page-1" stroke="none" stroke-width="1" fill="none" fill-rule="evenodd" sketch:type="MSPage">
        <g id="Artboard-14" sketch:type="MSArtboardGroup" transform="translate(-270.000000, -106.000000)" fill="#FFFFFF">
            <path d="M278.5,120 L278.5,120 C281.537566,120 284,117.537566 284,114.5 C284,111.462434 281.537566,109 278.5,109 C275.462434,109 273,111.462434 273,114.5 C273,117.537566 275.462434,120 278.5,120 L278.5,120 Z M278.5,121 C274.910149,121 272,118.089851 272,114.5 C272,110.910149 274.910149,108 278.5,108 C282.089851,108 285,110.910149 285,114.5 C285,118.089851 282.089851,121 278.5,121 Z M283,119.707107 L283.707107,119 L287.949747,123.242641 L287.242641,123.949747 L283,119.707107 Z" id="Shape" sketch:type="MSShapeGroup"></path>
        </g>
    </g>
</svg>